<svg xmlns="http://www.w3.org/2000/svg" xmlns:xlink="http://www.w3.org/1999/xlink" width="60" height="60" viewBox="0 0 60 60">
  <defs>
    <filter id="교차_1" x="0" y="13" width="60" height="47" filterUnits="userSpaceOnUse">
      <feOffset input="SourceAlpha"/>
      <feGaussianBlur stdDeviation="5" result="blur"/>
      <feFlood flood-opacity="0.2"/>
      <feComposite operator="in" in2="blur"/>
      <feComposite in="SourceGraphic"/>
    </filter>
    <filter id="타원_2" x="7" y="0" width="46" height="46" filterUnits="userSpaceOnUse">
      <feOffset input="SourceAlpha"/>
      <feGaussianBlur stdDeviation="5" result="blur-2"/>
      <feFlood flood-opacity="0.2"/>
      <feComposite operator="in" in2="blur-2"/>
      <feComposite in="SourceGraphic"/>
    </filter>
  </defs>
  <g id="icoAccount" transform="translate(-1502 -40)">
    <g transform="matrix(1, 0, 0, 1, 1502, 40)" filter="url(#교차_1)">
      <path id="교차_1-2" data-name="교차 1" d="M107,30a1,1,0,0,1-.941-.661Q106,28.677,106,28a15,15,0,1,1,30,0q0,.677-.059,1.339A1,1,0,0,1,135,30Z" transform="translate(-91 15)" fill="#fff"/>
    </g>
    <g transform="matrix(1, 0, 0, 1, 1502, 40)" filter="url(#타원_2)">
      <circle id="타원_2-2" data-name="타원 2" cx="8" cy="8" r="8" transform="translate(22 15)" fill="#fff"/>
    </g>
  </g>
</svg>
