<svg id="레이어_6" data-name="레이어 6" xmlns="http://www.w3.org/2000/svg" viewBox="0 0 360 360"><defs><style>.cls-1{fill:#fff;fill-rule:evenodd;}</style></defs><path class="cls-1" d="M249.65,150.2c-5.6,0-8.4,5.8-8.4,10.7,0,8.5,6,32.4,16.8,32.4,6.1,0,8.7-5.3,8.7-10.7C266.75,173.5,261.35,150.2,249.65,150.2Z"/><path class="cls-1" d="M163.15,163.2c-2.4,0-4.1,6-4.5,7.1s-2.1,5-2.1,6.2c0,1.7,2.5,1.4,3.6,1.4h7.5c1,0,4,.2,4-1.3s-2.9-6.7-3.7-8.1C167.05,166.9,165.35,163.2,163.15,163.2Z"/><path class="cls-1" d="M180,109.06s-60-29.39-120,0V256c60-29.39,120,0,120,0,60-29.39,120,0,120,0V109.06S240,79.67,180,109.06ZM105.25,164.8c7.7,0,2.8-9.2,9.8-9.2,5.7,0,6.1,10.9,6.1,14.8,0,4.7-.5,16.8-7.3,16.8-6.4,0,.2-11.3-10.5-11.3-4.4,0-3.8.8-3.9,11.1-.4,14.8,9.7,6.6,9.7,14.2,0,2.3.9,6.7-23.4,6.7-16,0-18.6-2.3-18.6-6.6,0-5.6,5.4-3,7.5-8.3,1-2.8,1.3-9.9,1.3-13.2V165.9a114.58,114.58,0,0,0-.3-14.4c-1.2-8.6-7.7-4.9-7.7-10.4,0-3.8,4.4-5.4,7.6-5.4,2.6,0,20.6,1,28.9,1,2,0,22.1-1,23.5-1,3.9,0,8,8.2,8,15,0,3.4-1.61,6.9-5.4,6.9-6.91,0-3.31-10.3-22.51-10.3-6.1,0-8.7-.5-8.7,14C99.35,163.1,99.45,164.8,105.25,164.8ZM194,207.9c-14.3,0-22.9-.1-22.9-6.3,0-4.8,6.1-3,6.1-6.5,0-4.5-2.5-4.9-18.6-4.9-5.2,0-8.3.2-8.3,5.1,0,3.9,6.4,1.3,6.4,6.5,0,6-10.8,6.1-14.8,6.1-14.3,0-15.6-2.7-15.6-5.9,0-4.7,5.4-3.3,8.3-6.9,2.2-2.7,4.3-7.5,5.8-10.7l6.3-13.7c3.1-6.9,7.2-15.7,7.2-23.6,0-6.9,3.2-12.1,12.1-12.1,8.7,0,14.2,8.9,18.1,15.5,1.7,2.9,16.8,33.5,20.41,41.7,3.29,7.6,8.7,3,8.7,8.7C213.16,208.2,199,207.9,194,207.9Zm76,17.6c-6.2,0-10.6-1.2-16.4-3.3l-15.4-6.3c-8.6-3.5-12.1-5.4-16.6-5.4-.8,0-1.6.2-2.5.2-1.6,0-2.3-1.5-2.3-2.9,0-4.2,4.1-6.5,7.9-6.5.7,0,1.4.1,2.1.1s1.5-.2,1.5-1c0-2.2-12.7-8.8-12.7-28.9,0-21.2,16.9-36.2,38.7-36.2,27.6,0,38.2,24.3,38.2,37.2,0,15.7-9.2,27-23.8,32.9-.5.2-1.3.8-1.3,1.4,0,1.6,3.4,4.6,15,4.6,4,0,7.1-1.8,7.9-1.8,1.5,0,2.6,2.6,2.6,3.9C292.85,216.6,286.35,225.5,270,225.5Z"/><path class="cls-1" d="M268.65,205.4c-.5.2-1.3.8-1.3,1.4,0,1.6,3.4,4.6,15,4.6,3.69,0,6.59-1.51,7.65-1.75V185.56C286.35,194.56,278.82,201.29,268.65,205.4Z"/><path class="cls-1" d="M74.65,193c1-2.8,1.3-9.9,1.3-13.2V165.9a114.58,114.58,0,0,0-.3-14.4c-.76-5.44-3.64-6-5.65-7v52.59C71.64,196.36,73.58,195.71,74.65,193Z"/><path class="cls-1" d="M163.15,163.2c-2.4,0-4.1,6-4.5,7.1s-2.1,5-2.1,6.2c0,1.7,2.5,1.4,3.6,1.4h7.5c1,0,4,.2,4-1.3s-2.9-6.7-3.7-8.1C167.05,166.9,165.35,163.2,163.15,163.2Z"/><path class="cls-1" d="M270,225.5c-6.2,0-10.6-1.2-16.4-3.3l-15.4-6.3c-8.6-3.5-12.1-5.4-16.6-5.4-.8,0-1.6.2-2.5.2-1.6,0-2.3-1.5-2.3-2.9,0-4.2,4.1-6.5,7.9-6.5.7,0,1.4.1,2.1.1s1.5-.2,1.5-1c0-2.2-12.7-8.8-12.7-28.9,0-21.2,16.9-36.2,38.7-36.2,20.15,0,31.23,12.94,35.75,24.95v-32s-55-27.55-110,0c0,0-55-27.55-110,0v9.09a10,10,0,0,1,5.55-1.63c2.6,0,20.6,1,28.9,1,2,0,22.1-1,23.5-1,3.9,0,8,8.2,8,15,0,3.4-1.61,6.9-5.4,6.9-6.91,0-3.31-10.3-22.51-10.3-6.1,0-8.7-.5-8.7,14,0,1.8.1,3.5,5.9,3.5,7.7,0,2.8-9.2,9.8-9.2,5.7,0,6.1,10.9,6.1,14.8,0,4.7-.5,16.8-7.3,16.8-6.4,0,.2-11.3-10.5-11.3-4.4,0-3.8.8-3.9,11.1-.4,14.8,9.7,6.6,9.7,14.2,0,2.3.9,6.7-23.4,6.7-8.47,0-13.19-.64-15.75-1.89v60c55-27.55,110,0,110,0,55-27.55,110,0,110,0V218.59C286.67,222,280.28,225.5,270,225.5Zm-76-17.6c-14.3,0-22.9-.1-22.9-6.3,0-4.8,6.1-3,6.1-6.5,0-4.5-2.5-4.9-18.6-4.9-5.2,0-8.3.2-8.3,5.1,0,3.9,6.4,1.3,6.4,6.5,0,6-10.8,6.1-14.8,6.1-14.3,0-15.6-2.7-15.6-5.9,0-4.7,5.4-3.3,8.3-6.9,2.2-2.7,4.3-7.5,5.8-10.7l6.3-13.7c3.1-6.9,7.2-15.7,7.2-23.6,0-6.9,3.2-12.1,12.1-12.1,8.7,0,14.2,8.9,18.1,15.5,1.7,2.9,16.8,33.5,20.41,41.7,3.29,7.6,8.7,3,8.7,8.7C213.16,208.2,199,207.9,194,207.9Z"/><path class="cls-1" d="M241.25,160.9c0,8.5,6,32.4,16.8,32.4,6.1,0,8.7-5.3,8.7-10.7,0-9.1-5.4-32.4-17.1-32.4C244.05,150.2,241.25,156,241.25,160.9Z"/></svg>